<svg width="330" height="85" viewBox="0 0 330 85" fill="none" xmlns="http://www.w3.org/2000/svg">
<path fill-rule="evenodd" clip-rule="evenodd" d="M52.9332 0L0 84.6931H21.1733L31.7599 67.7544L42.3465 84.6931H63.5198L74.1064 67.7544L84.6931 84.6931H105.866L52.9332 0ZM52.9332 66.6958L42.8759 50.2865L52.9332 33.3479L62.9905 50.2865L52.9332 66.6958Z" fill="white"/>
<path d="M155.101 56.0105H139.405L136.808 63.5199H128.508L142.68 24.0529H151.883L166.055 63.5199H157.699L155.101 56.0105ZM152.956 49.6867L147.253 33.1998L141.551 49.6867H152.956Z" fill="white"/>
<path d="M188.686 31.7882C192.413 31.7882 195.424 32.9739 197.72 35.3453C200.016 37.6791 201.164 40.9539 201.164 45.1697V63.5199H193.26V46.2425C193.26 43.7582 192.639 41.8573 191.396 40.5399C190.154 39.1848 188.46 38.5072 186.315 38.5072C184.132 38.5072 182.4 39.1848 181.12 40.5399C179.878 41.8573 179.257 43.7582 179.257 46.2425V63.5199H171.352V32.2399H179.257V36.1358C180.311 34.7807 181.647 33.7268 183.266 32.9739C184.922 32.1835 186.729 31.7882 188.686 31.7882Z" fill="white"/>
<path d="M206.649 47.767C206.649 44.6051 207.27 41.8008 208.512 39.3542C209.792 36.9075 211.523 35.0254 213.706 33.7079C215.89 32.3905 218.317 31.7318 220.99 31.7318C223.023 31.7318 224.961 32.1835 226.806 33.0869C228.65 33.9526 230.118 35.1195 231.21 36.5875V21.738H239.227V63.5199H231.21V58.89C230.231 60.4333 228.857 61.6755 227.088 62.6165C225.319 63.5576 223.267 64.0281 220.934 64.0281C218.299 64.0281 215.89 63.3505 213.706 61.9954C211.523 60.6403 209.792 58.7395 208.512 56.2928C207.27 53.8084 206.649 50.9665 206.649 47.767ZM231.266 47.8799C231.266 45.9602 230.89 44.3228 230.137 42.9677C229.384 41.575 228.368 40.521 227.088 39.8058C225.808 39.053 224.434 38.6766 222.966 38.6766C221.498 38.6766 220.143 39.0342 218.901 39.7494C217.659 40.4646 216.642 41.5185 215.852 42.9113C215.099 44.2663 214.723 45.8849 214.723 47.767C214.723 49.6491 215.099 51.3053 215.852 52.7357C216.642 54.1284 217.659 55.2012 218.901 55.954C220.181 56.7068 221.536 57.0832 222.966 57.0832C224.434 57.0832 225.808 56.7256 227.088 56.0105C228.368 55.2576 229.384 54.2037 230.137 52.8486C230.89 51.4558 231.266 49.7996 231.266 47.8799Z" fill="white"/>
<path d="M276.477 32.2399V63.5199H268.516V59.5676C267.5 60.9227 266.163 61.9954 264.507 62.7859C262.889 63.5387 261.12 63.9151 259.2 63.9151C256.753 63.9151 254.589 63.407 252.707 62.3907C250.825 61.3367 249.338 59.8122 248.246 57.8172C247.192 55.7846 246.665 53.3756 246.665 50.5901V32.2399H254.57V49.4609C254.57 51.9452 255.191 53.8649 256.433 55.22C257.675 56.5374 259.369 57.1962 261.515 57.1962C263.698 57.1962 265.411 56.5374 266.653 55.22C267.895 53.8649 268.516 51.9452 268.516 49.4609V32.2399H276.477Z" fill="white"/>
<path d="M288.285 28.5134C286.893 28.5134 285.726 28.0806 284.785 27.2148C283.881 26.3114 283.43 25.201 283.43 23.8836C283.43 22.5661 283.881 21.4745 284.785 20.6088C285.726 19.7054 286.893 19.2537 288.285 19.2537C289.678 19.2537 290.826 19.7054 291.729 20.6088C292.67 21.4745 293.141 22.5661 293.141 23.8836C293.141 25.201 292.67 26.3114 291.729 27.2148C290.826 28.0806 289.678 28.5134 288.285 28.5134ZM292.181 32.2399V63.5199H284.276V32.2399H292.181Z" fill="white"/>
<path d="M317.325 31.7882C321.051 31.7882 324.063 32.9739 326.359 35.3453C328.655 37.6791 329.803 40.9539 329.803 45.1697V63.5199H321.898V46.2425C321.898 43.7582 321.277 41.8573 320.035 40.5399C318.793 39.1848 317.099 38.5072 314.953 38.5072C312.77 38.5072 311.039 39.1848 309.759 40.5399C308.517 41.8573 307.896 43.7582 307.896 46.2425V63.5199H299.991V32.2399H307.896V36.1358C308.95 34.7807 310.286 33.7268 311.904 32.9739C313.561 32.1835 315.367 31.7882 317.325 31.7882Z" fill="white"/>
</svg>
